<?xml version="1.0" encoding="UTF-8" standalone="no"?>
<!DOCTYPE svg PUBLIC "-//W3C//DTD SVG 1.1//EN" "http://www.w3.org/Graphics/SVG/1.1/DTD/svg11.dtd">
<svg width="100%" height="100%" viewBox="0 0 551 904" version="1.1" xmlns="http://www.w3.org/2000/svg" xmlns:xlink="http://www.w3.org/1999/xlink" xml:space="preserve" xmlns:serif="http://www.serif.com/" style="fill-rule:evenodd;clip-rule:evenodd;stroke-linecap:round;stroke-linejoin:round;stroke-miterlimit:1.5;">
    <g transform="matrix(1,0,0,1,-1770.1,-571.385)">
        <g transform="matrix(1.32256,0,0,1.32256,73.4834,-461.606)">
            <g id="Layer3">
                <path d="M1465.71,1425.95C1465.71,1425.95 1451.96,1438.7 1503.41,1456.75C1528.38,1465.51 1549.8,1455.82 1557.74,1442.76C1563.41,1433.42 1573.61,1421.15 1521.17,1418.21C1395.36,1411.14 1376.3,1374.3 1514.74,1397.92C1572.85,1407.83 1587.66,1404.37 1589.46,1398.23C1591.95,1389.74 1561.76,1374.61 1516.46,1369.09C1438.39,1359.58 1338.78,1328.79 1511.93,1347.53C1576.41,1354.5 1589.14,1351.96 1593.65,1349C1601.25,1344.01 1559.45,1332.09 1512.77,1320.81C1438.39,1302.82 1308.19,1260.85 1511.1,1297.23C1592.54,1311.83 1594.44,1306.47 1594.61,1300.39C1594.86,1291.32 1558.76,1274.68 1515.46,1272.29C1443.13,1268.3 1409.29,1246.15 1401.85,1236.38C1394.41,1226.62 1401.01,1172.11 1347.23,1093.74C1294.85,1017.43 1283.71,969.829 1287.35,933.491C1291.72,889.732 1330.93,785.793 1486.98,784.947C1643.03,784.1 1695.71,896.925 1695.03,955.737C1694.37,1012.68 1677.4,1038.63 1629.79,1105.96C1602.72,1144.25 1604.37,1225 1574.22,1249.59C1544.06,1274.17 1414.03,1200.72 1414.25,1109.7C1414.47,1018.69 1448.68,1006.77 1495.23,1090.62C1541.78,1174.47 1421.2,1144.89 1469.14,1089.52C1517.09,1034.15 1592.73,1008.17 1544.33,1119.76C1494.92,1233.69 1474.68,1183.87 1469.62,1180.07" style="fill:none;stroke:black;stroke-width:7.77px;"/>
            </g>
        </g>
    </g>
</svg>
